<svg width="59" height="45" viewBox="0 0 59 45" fill="none" xmlns="http://www.w3.org/2000/svg">
<path d="M22.7946 0V3.57558C17.6314 6.25 13.9349 9.0407 11.7054 11.9477C9.47577 14.8547 8.36097 18.0233 8.36097 21.4535C8.36097 23.4884 8.65434 24.8837 9.24107 25.6395C9.76913 26.4535 10.4145 26.8605 11.1773 26.8605C11.9401 26.8605 12.9668 26.657 14.2577 26.25C15.5485 25.7849 16.7219 25.5523 17.7781 25.5523C20.1837 25.5523 22.2666 26.4535 24.0268 28.2558C25.8457 30 26.7551 32.1512 26.7551 34.7093C26.7551 37.5 25.6696 39.9128 23.4987 41.9477C21.3278 43.9244 18.6288 44.9128 15.4018 44.9128C11.4707 44.9128 7.92092 43.2267 4.75255 39.8547C1.58418 36.4826 0 32.3256 0 27.3837C0 21.5698 1.93622 16.1628 5.80867 11.1628C9.7398 6.10465 15.4018 2.38372 22.7946 0ZM54.7755 0.261628V3.57558C48.8495 6.94767 44.9477 9.97093 43.0702 12.6453C41.1926 15.3198 40.2538 18.4593 40.2538 22.064C40.2538 23.6919 40.5765 24.9128 41.2219 25.7267C41.8673 26.5407 42.5421 26.9477 43.2462 26.9477C43.8916 26.9477 44.8597 26.7151 46.1505 26.25C47.4413 25.7849 48.7321 25.5523 50.023 25.5523C52.4286 25.5523 54.5115 26.4244 56.2717 28.1686C58.0906 29.8547 59 31.9477 59 34.4477C59 37.2965 57.8559 39.7674 55.5676 41.8605C53.338 43.9535 50.5804 45 47.2946 45C43.4222 45 39.9311 43.343 36.8214 40.0291C33.7117 36.7151 32.1569 32.5872 32.1569 27.6453C32.1569 21.5407 34.1224 15.9884 38.0536 10.9884C41.9847 5.93023 47.5587 2.35465 54.7755 0.261628Z" fill="#2B2A29"/>
</svg>
