<svg width="36" height="36" viewBox="0 0 36 36" fill="none" xmlns="http://www.w3.org/2000/svg">
<circle cx="18" cy="18" r="17.5" transform="rotate(-90 18 18)" stroke="#F39314"/>
<mask id="path-2-inside-1" fill="white">
<path fill-rule="evenodd" clip-rule="evenodd" d="M19.8249 12L19.2787 12.5307L24.3544 17.4623H10.0002V18.523H24.3695L19.2787 23.4693L19.8249 24L26 18L19.8249 12Z"/>
</mask>
<path fill-rule="evenodd" clip-rule="evenodd" d="M19.8249 12L19.2787 12.5307L24.3544 17.4623H10.0002V18.523H24.3695L19.2787 23.4693L19.8249 24L26 18L19.8249 12Z" fill="white"/>
<path d="M19.2787 12.5307L18.5819 13.2479L17.8437 12.5307L18.5819 11.8134L19.2787 12.5307ZM19.8249 12L19.128 11.2828L19.8249 10.6057L20.5217 11.2828L19.8249 12ZM24.3544 17.4623L25.0512 16.7451L26.8185 18.4623H24.3544V17.4623ZM10.0002 17.4623H9.0002V16.4623H10.0002V17.4623ZM10.0002 18.523V19.523H9.0002V18.523H10.0002ZM24.3695 18.523V17.523H26.8336L25.0663 19.2402L24.3695 18.523ZM19.2787 23.4693L18.5819 24.1866L17.8437 23.4693L18.5819 22.7521L19.2787 23.4693ZM19.8249 24L20.5217 24.7172L19.8249 25.3943L19.128 24.7172L19.8249 24ZM26 18L26.6969 17.2828L27.435 18L26.6969 18.7172L26 18ZM18.5819 11.8134L19.128 11.2828L20.5217 12.7172L19.9756 13.2479L18.5819 11.8134ZM23.6575 18.1795L18.5819 13.2479L19.9756 11.8134L25.0512 16.7451L23.6575 18.1795ZM24.3544 18.4623H10.0002V16.4623H24.3544V18.4623ZM11.0002 17.4623V18.523H9.0002V17.4623H11.0002ZM10.0002 17.523H24.3695V19.523H10.0002V17.523ZM18.5819 22.7521L23.6726 17.8058L25.0663 19.2402L19.9756 24.1866L18.5819 22.7521ZM19.128 24.7172L18.5819 24.1866L19.9756 22.7521L20.5217 23.2828L19.128 24.7172ZM26.6969 18.7172L20.5217 24.7172L19.128 23.2828L25.3031 17.2828L26.6969 18.7172ZM20.5217 11.2828L26.6969 17.2828L25.3031 18.7172L19.128 12.7172L20.5217 11.2828Z" fill="#F39314" mask="url(#path-2-inside-1)"/>
</svg>
