<svg width="48" height="48" viewBox="0 0 48 48" fill="none" xmlns="http://www.w3.org/2000/svg">
<circle r="23.5" transform="matrix(0 -1 -1 0 24 24)" stroke="#F39314"/>
<mask id="path-2-inside-1" fill="white">
<path fill-rule="evenodd" clip-rule="evenodd" d="M32.5161 21.9203L31.7419 22.6945L24.5419 15.4945L24.5419 35.8558H22.9935L22.9935 15.4733L15.7723 22.6945L14.9981 21.9203L23.7571 13.1613L32.5161 21.9203Z"/>
</mask>
<path fill-rule="evenodd" clip-rule="evenodd" d="M32.5161 21.9203L31.7419 22.6945L24.5419 15.4945L24.5419 35.8558H22.9935L22.9935 15.4733L15.7723 22.6945L14.9981 21.9203L23.7571 13.1613L32.5161 21.9203Z" fill="white"/>
<path d="M31.7419 22.6945L31.0348 23.4016L31.7419 24.1087L32.449 23.4016L31.7419 22.6945ZM32.5161 21.9203L33.2232 22.6274L33.9303 21.9203L33.2232 21.2132L32.5161 21.9203ZM24.5419 15.4945L25.249 14.7873L23.5419 13.0802V15.4945H24.5419ZM24.5419 35.8558V36.8558H25.5419V35.8558H24.5419ZM22.9935 35.8558H21.9935V36.8558H22.9935V35.8558ZM22.9935 15.4733H23.9935V13.0591L22.2864 14.7662L22.9935 15.4733ZM15.7723 22.6945L15.0652 23.4016L15.7723 24.1087L16.4794 23.4016L15.7723 22.6945ZM14.9981 21.9203L14.291 21.2132L13.5839 21.9203L14.291 22.6274L14.9981 21.9203ZM23.7571 13.1613L24.4642 12.4542L23.7571 11.7471L23.05 12.4542L23.7571 13.1613ZM32.449 23.4016L33.2232 22.6274L31.809 21.2132L31.0348 21.9874L32.449 23.4016ZM23.8348 16.2016L31.0348 23.4016L32.449 21.9874L25.249 14.7873L23.8348 16.2016ZM23.5419 15.4945L23.5419 35.8558H25.5419L25.5419 15.4945H23.5419ZM24.5419 34.8558H22.9935V36.8558H24.5419V34.8558ZM23.9935 35.8558L23.9935 15.4733H21.9935L21.9935 35.8558H23.9935ZM16.4794 23.4016L23.7006 16.1804L22.2864 14.7662L15.0652 21.9874L16.4794 23.4016ZM14.291 22.6274L15.0652 23.4016L16.4794 21.9874L15.7052 21.2132L14.291 22.6274ZM23.05 12.4542L14.291 21.2132L15.7052 22.6274L24.4642 13.8684L23.05 12.4542ZM33.2232 21.2132L24.4642 12.4542L23.05 13.8684L31.809 22.6274L33.2232 21.2132Z" fill="#F39314" mask="url(#path-2-inside-1)"/>
</svg>
