<svg width="48" height="48" viewBox="0 0 48 48" fill="none" xmlns="http://www.w3.org/2000/svg">
<circle cx="24" cy="24" r="23.5" transform="rotate(90 24 24)" stroke="#F39314"/>
<mask id="path-2-inside-1" fill="white">
<path fill-rule="evenodd" clip-rule="evenodd" d="M32.5161 26.0797L31.7419 25.3055L24.5419 32.5055V12.1442H22.9935V32.5267L15.7723 25.3055L14.9981 26.0797L23.7571 34.8387L32.5161 26.0797Z"/>
</mask>
<path fill-rule="evenodd" clip-rule="evenodd" d="M32.5161 26.0797L31.7419 25.3055L24.5419 32.5055V12.1442H22.9935V32.5267L15.7723 25.3055L14.9981 26.0797L23.7571 34.8387L32.5161 26.0797Z" fill="white"/>
<path d="M31.7419 25.3055L31.0348 24.5984L31.7419 23.8913L32.449 24.5984L31.7419 25.3055ZM32.5161 26.0797L33.2232 25.3726L33.9303 26.0797L33.2232 26.7868L32.5161 26.0797ZM24.5419 32.5055L25.249 33.2126L23.5419 34.9198V32.5055H24.5419ZM24.5419 12.1442V11.1442H25.5419V12.1442H24.5419ZM22.9935 12.1442H21.9935V11.1442H22.9935V12.1442ZM22.9935 32.5267H23.9935V34.9409L22.2864 33.2338L22.9935 32.5267ZM15.7723 25.3055L15.0652 24.5984L15.7723 23.8913L16.4794 24.5984L15.7723 25.3055ZM14.9981 26.0797L14.291 26.7868L13.5839 26.0797L14.291 25.3726L14.9981 26.0797ZM23.7571 34.8387L24.4642 35.5458L23.7571 36.2529L23.05 35.5458L23.7571 34.8387ZM32.449 24.5984L33.2232 25.3726L31.809 26.7868L31.0348 26.0126L32.449 24.5984ZM23.8348 31.7984L31.0348 24.5984L32.449 26.0126L25.249 33.2126L23.8348 31.7984ZM23.5419 32.5055V12.1442H25.5419V32.5055H23.5419ZM24.5419 13.1442H22.9935V11.1442H24.5419V13.1442ZM23.9935 12.1442V32.5267H21.9935V12.1442H23.9935ZM16.4794 24.5984L23.7006 31.8196L22.2864 33.2338L15.0652 26.0126L16.4794 24.5984ZM14.291 25.3726L15.0652 24.5984L16.4794 26.0126L15.7052 26.7868L14.291 25.3726ZM23.05 35.5458L14.291 26.7868L15.7052 25.3726L24.4642 34.1316L23.05 35.5458ZM33.2232 26.7868L24.4642 35.5458L23.05 34.1316L31.809 25.3726L33.2232 26.7868Z" fill="#F39314" mask="url(#path-2-inside-1)"/>
</svg>
