<svg width="36" height="36" viewBox="0 0 36 36" fill="none" xmlns="http://www.w3.org/2000/svg">
<circle r="17.5" transform="matrix(0 -1 -1 0 18 18)" stroke="#F39314"/>
<mask id="path-2-inside-1" fill="white">
<path fill-rule="evenodd" clip-rule="evenodd" d="M16.1751 12L16.7213 12.5307L11.6456 17.4623H25.9998V18.523H11.6305L16.7213 23.4693L16.1751 24L10 18L16.1751 12Z"/>
</mask>
<path fill-rule="evenodd" clip-rule="evenodd" d="M16.1751 12L16.7213 12.5307L11.6456 17.4623H25.9998V18.523H11.6305L16.7213 23.4693L16.1751 24L10 18L16.1751 12Z" fill="white"/>
<path d="M16.7213 12.5307L17.4181 13.2479L18.1563 12.5307L17.4181 11.8134L16.7213 12.5307ZM16.1751 12L16.872 11.2828L16.1751 10.6057L15.4783 11.2828L16.1751 12ZM11.6456 17.4623L10.9488 16.7451L9.18145 18.4623H11.6456V17.4623ZM25.9998 17.4623H26.9998V16.4623H25.9998V17.4623ZM25.9998 18.523V19.523H26.9998V18.523H25.9998ZM11.6305 18.523V17.523H9.16636L10.9337 19.2402L11.6305 18.523ZM16.7213 23.4693L17.4181 24.1866L18.1563 23.4693L17.4181 22.7521L16.7213 23.4693ZM16.1751 24L15.4783 24.7172L16.1751 25.3943L16.872 24.7172L16.1751 24ZM10 18L9.30314 17.2828L8.565 18L9.30314 18.7172L10 18ZM17.4181 11.8134L16.872 11.2828L15.4783 12.7172L16.0244 13.2479L17.4181 11.8134ZM12.3425 18.1795L17.4181 13.2479L16.0244 11.8134L10.9488 16.7451L12.3425 18.1795ZM11.6456 18.4623H25.9998V16.4623H11.6456V18.4623ZM24.9998 17.4623V18.523H26.9998V17.4623H24.9998ZM25.9998 17.523H11.6305V19.523H25.9998V17.523ZM17.4181 22.7521L12.3274 17.8058L10.9337 19.2402L16.0244 24.1866L17.4181 22.7521ZM16.872 24.7172L17.4181 24.1866L16.0244 22.7521L15.4783 23.2828L16.872 24.7172ZM9.30314 18.7172L15.4783 24.7172L16.872 23.2828L10.6969 17.2828L9.30314 18.7172ZM15.4783 11.2828L9.30314 17.2828L10.6969 18.7172L16.872 12.7172L15.4783 11.2828Z" fill="#F39314" mask="url(#path-2-inside-1)"/>
</svg>
