<svg width="60" height="60" viewBox="0 0 60 60" fill="none" xmlns="http://www.w3.org/2000/svg">
<path d="M57.49 27H54V19.732C54 18.226 52.774 17 51.268 17H48V14.586L32.414 0H8V10H2.732C1.226 10 0 11.226 0 12.732V57.962L0.058 57.964C0.136 58.331 0.292 58.683 0.529 58.993C1.018 59.634 1.76 60 2.565 60H47.324C48.48 60 49.498 59.221 49.774 58.187L60 30.149V29.972C60 28.25 58.944 27 57.49 27ZM31 2.288C31 2.182 31.129 2.128 31.204 2.204L45.796 15.797C45.871 15.872 45.818 16 45.712 16H31V2.288ZM16 5H26C26.552 5 27 5.447 27 6C27 6.553 26.552 7 26 7H16C15.448 7 15 6.553 15 6C15 5.447 15.448 5 16 5ZM16 12H26C26.552 12 27 12.447 27 13C27 13.553 26.552 14 26 14H16C15.448 14 15 13.553 15 13C15 12.447 15.448 12 16 12ZM16 19H40C40.552 19 41 19.447 41 20C41 20.553 40.552 21 40 21H16C15.448 21 15 20.553 15 20C15 19.447 15.448 19 16 19ZM10.281 28.813L2 51.526V12.732C2 12.328 2.328 12 2.732 12H8V31L9.666 26.836C9.868 26.331 10.356 26 10.9 26H46H48V19H51.268C51.672 19 52 19.328 52 19.732V27H47H12.731C11.575 27 10.557 27.779 10.281 28.813Z" fill="#2B2A29"/>
</svg>
