<svg width="105" height="72" viewBox="0 0 105 72" fill="none" xmlns="http://www.w3.org/2000/svg">
<path fill-rule="evenodd" clip-rule="evenodd" d="M63.0981 0H26.8684V10.7753L34.5461 18.4436V7.66421H44.6232L37.1858 15.3288V21.075L39.5854 23.4725L63.0981 0Z" fill="#F39314"/>
<path fill-rule="evenodd" clip-rule="evenodd" d="M66.9368 0L59.2596 7.66421H70.0569V17.7225L62.618 10.2998H56.6198L54.2222 12.6931L77.7344 36.166V0H66.9368Z" fill="#2B2A29"/>
<path fill-rule="evenodd" clip-rule="evenodd" d="M65.0188 27.3049L41.5046 50.7775H77.7338V39.9979L70.0564 32.3338V43.1131H59.9774L67.6549 35.6866V29.6986L65.0188 27.3049Z" fill="#2B2A29"/>
<path fill-rule="evenodd" clip-rule="evenodd" d="M26.8684 14.6113V50.7775H37.6661L45.3434 43.1131H34.5461V33.0549L42.2254 40.7195H47.9834L50.3829 38.0839L26.8684 14.6113Z" fill="#2B2A29"/>
<path d="M8.27624 61.0759H0V63.432H2.86489V71.7858H5.41135V63.432H8.27624V61.0759ZM14.4413 61.0759H10.2236V71.7858H12.7702V68.4198H14.4413C14.9931 68.4173 15.505 68.3204 15.9772 68.1317C16.4494 67.943 16.8605 67.6829 17.2159 67.3463C17.5688 67.0122 17.842 66.6221 18.041 66.1809C18.2373 65.7373 18.338 65.2604 18.3407 64.7479C18.338 64.2353 18.2373 63.7584 18.041 63.3148C17.842 62.8736 17.5688 62.4835 17.2159 62.1495C16.8605 61.8128 16.4494 61.5527 15.9772 61.3641C15.505 61.1753 14.9931 61.0785 14.4413 61.0759ZM14.4413 66.1249H12.7702V63.3709H14.4413C14.704 63.3734 14.9347 63.4347 15.139 63.5545C15.3406 63.6743 15.4998 63.8375 15.6165 64.0441C15.7331 64.2506 15.7915 64.4852 15.7942 64.7479C15.7915 65.0105 15.7331 65.2451 15.6165 65.4517C15.4998 65.6582 15.3406 65.8214 15.139 65.9412C14.9347 66.0611 14.704 66.1223 14.4413 66.1249ZM26.4157 71.7858H29.201L25.413 61.0759H22.1662L18.3782 71.7858H21.1635L21.7206 70.1028H25.8586L26.4157 71.7858ZM22.4845 67.8079L23.7896 63.8758L25.0947 67.8079H22.4845ZM36.4006 61.0759V65.1762H32.8992V61.0759H30.3526V71.7858H32.8992V67.5324H36.4006V71.7858H38.9472V61.0759H36.4006ZM46.0512 72C46.733 71.9975 47.3776 71.8954 47.9824 71.694C48.5872 71.4926 49.131 71.207 49.6164 70.8373C50.1018 70.4675 50.505 70.0289 50.8261 69.5214L48.6297 68.2974C48.4678 68.5728 48.2583 68.81 48.001 69.0064C47.741 69.2027 47.4466 69.3506 47.115 69.4551C46.7861 69.5597 46.4306 69.6133 46.0512 69.6133C45.3908 69.6081 44.8178 69.4755 44.3324 69.2129C43.8469 68.9502 43.4729 68.5805 43.2077 68.1062C42.9424 67.6294 42.8071 67.0734 42.8045 66.4309C42.8071 65.7882 42.9424 65.2324 43.2077 64.7555C43.4729 64.2812 43.8469 63.9114 44.3324 63.6488C44.8178 63.3861 45.3908 63.2535 46.0512 63.2485C46.4306 63.2485 46.7834 63.302 47.1124 63.4065C47.4413 63.5111 47.7357 63.659 47.993 63.8554C48.2503 64.0517 48.4626 64.2889 48.6297 64.5642L50.8261 63.3403C50.4998 62.8328 50.0913 62.3942 49.6059 62.0245C49.1204 61.6547 48.574 61.3691 47.9718 61.1677C47.3697 60.9662 46.7277 60.8643 46.0512 60.8617C45.3775 60.8643 44.7462 60.956 44.1599 61.1371C43.571 61.3207 43.0379 61.5783 42.5604 61.9148C42.0829 62.2489 41.6744 62.6466 41.3296 63.1083C40.9874 63.5698 40.7221 64.0798 40.5391 64.6408C40.3534 65.2018 40.2605 65.7985 40.2579 66.4309C40.2605 67.0633 40.3534 67.6599 40.5391 68.221C40.7221 68.7819 40.9874 69.2919 41.3296 69.7535C41.6744 70.215 42.0829 70.6128 42.5604 70.9469C43.0379 71.2835 43.571 71.541 44.1599 71.7246C44.7462 71.9057 45.3775 71.9975 46.0512 72ZM57.373 72C58.0548 71.9975 58.6994 71.8954 59.3042 71.694C59.909 71.4926 60.4528 71.207 60.9382 70.8373C61.4236 70.4675 61.8268 70.0289 62.1478 69.5214L59.9515 68.2974C59.7896 68.5728 59.5801 68.81 59.3228 69.0064C59.0628 69.2027 58.7684 69.3506 58.4368 69.4551C58.1079 69.5597 57.7524 69.6133 57.373 69.6133C56.7126 69.6081 56.1396 69.4755 55.6541 69.2129C55.1687 68.9502 54.7947 68.5805 54.5295 68.1062C54.2642 67.6294 54.1289 67.0734 54.1263 66.4309C54.1289 65.7882 54.2642 65.2324 54.5295 64.7555C54.7947 64.2812 55.1687 63.9114 55.6541 63.6488C56.1396 63.3861 56.7126 63.2535 57.373 63.2485C57.7524 63.2485 58.1052 63.302 58.4342 63.4065C58.763 63.5111 59.0575 63.659 59.3148 63.8554C59.5721 64.0517 59.7844 64.2889 59.9515 64.5642L62.1478 63.3403C61.8216 62.8328 61.4131 62.3942 60.9276 62.0245C60.4422 61.6547 59.8958 61.3691 59.2936 61.1677C58.6915 60.9662 58.0495 60.8643 57.373 60.8617C56.6993 60.8643 56.068 60.956 55.4817 61.1371C54.8928 61.3207 54.3596 61.5783 53.8822 61.9148C53.4047 62.2489 52.9962 62.6466 52.6514 63.1083C52.3092 63.5698 52.0439 64.0798 51.8609 64.6408C51.6752 65.2018 51.5823 65.7985 51.5797 66.4309C51.5823 67.0633 51.6752 67.6599 51.8609 68.221C52.0439 68.7819 52.3092 69.2919 52.6514 69.7535C52.9962 70.215 53.4047 70.6128 53.8822 70.9469C54.3596 71.2835 54.8928 71.541 55.4817 71.7246C56.068 71.9057 56.6993 71.9975 57.373 72ZM71.8144 61.0759H63.5381V63.432H66.403V71.7858H68.9495V63.432H71.8144V61.0759ZM77.502 61.0759H73.2843V71.7858H75.8309V68.4198H77.502C78.0538 68.4173 78.5657 68.3204 79.0379 68.1317C79.5101 67.943 79.9212 67.6829 80.2766 67.3463C80.6294 67.0122 80.9027 66.6221 81.1017 66.1809C81.2979 65.7373 81.3987 65.2604 81.4014 64.7479C81.3987 64.2353 81.2979 63.7584 81.1017 63.3148C80.9027 62.8736 80.6294 62.4835 80.2766 62.1495C79.9212 61.8128 79.5101 61.5527 79.0379 61.3641C78.5657 61.1753 78.0538 61.0785 77.502 61.0759ZM77.502 66.1249H75.8309V63.3709H77.502C77.7646 63.3734 77.9954 63.4347 78.1997 63.5545C78.4012 63.6743 78.5604 63.8375 78.6771 64.0441C78.7938 64.2506 78.8522 64.4852 78.8548 64.7479C78.8522 65.0105 78.7938 65.2451 78.6771 65.4517C78.5604 65.6582 78.4012 65.8214 78.1997 65.9412C77.9954 66.0611 77.7646 66.1223 77.502 66.1249ZM88.3463 72C88.9883 71.9975 89.5984 71.9057 90.1767 71.7246C90.7549 71.541 91.2855 71.2835 91.7682 70.9469C92.2484 70.6128 92.6674 70.215 93.023 69.7535C93.3758 69.2919 93.649 68.7819 93.8452 68.221C94.0389 67.6599 94.137 67.0633 94.1397 66.4309C94.137 65.7985 94.0389 65.2018 93.8452 64.6408C93.649 64.0798 93.3758 63.5698 93.023 63.1083C92.6674 62.6466 92.2484 62.2489 91.7682 61.9148C91.2855 61.5783 90.7549 61.3207 90.1767 61.1371C89.5984 60.956 88.9883 60.8643 88.3463 60.8617C87.7044 60.8643 87.0943 60.956 86.516 61.1371C85.9378 61.3207 85.4072 61.5783 84.9244 61.9148C84.4443 62.2489 84.0252 62.6466 83.6697 63.1083C83.3169 63.5698 83.0437 64.0798 82.8474 64.6408C82.6537 65.2018 82.5556 65.7985 82.553 66.4309C82.5556 67.0633 82.6537 67.6599 82.8474 68.221C83.0437 68.7819 83.3169 69.2919 83.6697 69.7535C84.0252 70.215 84.4443 70.6128 84.9244 70.9469C85.4072 71.2835 85.9378 71.541 86.516 71.7246C87.0943 71.9057 87.7044 71.9975 88.3463 72ZM88.3463 69.6133C87.8901 69.6106 87.4656 69.5367 87.0731 69.3837C86.6805 69.2333 86.3382 69.019 86.0438 68.7386C85.7467 68.4581 85.516 68.124 85.3515 67.7338C85.187 67.3463 85.1022 66.9103 85.0995 66.4309C85.1022 65.9515 85.187 65.5154 85.3515 65.1278C85.516 64.7376 85.7467 64.4036 86.0438 64.1231C86.3382 63.8426 86.6805 63.6284 87.0731 63.478C87.4656 63.325 87.8901 63.251 88.3463 63.2485C88.8026 63.251 89.227 63.325 89.6196 63.478C90.0122 63.6284 90.3543 63.8426 90.6514 64.1231C90.9459 64.4036 91.1767 64.7376 91.3412 65.1278C91.5057 65.5154 91.5905 65.9515 91.5931 66.4309C91.5905 66.9103 91.5057 67.3463 91.3412 67.7338C91.1767 68.124 90.9459 68.4581 90.6514 68.7386C90.3543 69.019 90.0122 69.2333 89.6196 69.3837C89.227 69.5367 88.8026 69.6106 88.3463 69.6133ZM98.2357 60.1732H103.011V58.1842H98.2357V60.1732ZM102.453 71.7858H105V61.0759H103.09L98.7928 66.8899V61.0759H96.2463V71.7858H98.1562L102.453 65.9719V71.7858Z" fill="#2B2A29"/>
</svg>
