<svg width="32" height="44" viewBox="0 0 32 44" fill="none" xmlns="http://www.w3.org/2000/svg">
<path d="M16 0C7.17755 0 0 7.14846 0 15.9351C0 26.8395 14.3184 42.8479 14.9281 43.524C15.5007 44.1592 16.5004 44.1581 17.0719 43.524C17.6816 42.8479 32 26.8395 32 15.9351C31.9998 7.14846 24.8224 0 16 0ZM16 23.9524C11.5612 23.9524 7.95008 20.3559 7.95008 15.9351C7.95008 11.5143 11.5613 7.91778 16 7.91778C20.4387 7.91778 24.0498 11.5143 24.0498 15.9352C24.0498 20.356 20.4387 23.9524 16 23.9524Z" fill="#2B2A29"/>
</svg>
