<svg width="18" height="18" viewBox="0 0 18 18" fill="none" xmlns="http://www.w3.org/2000/svg">
<path d="M0.227115 1.31984C-0.0757052 1.01787 -0.0757052 0.528282 0.227115 0.226311C0.529936 -0.0756591 1.02091 -0.0756591 1.32373 0.226311L17.7729 16.6293C18.0757 16.9313 18.0757 17.4209 17.7729 17.7228C17.4701 18.0248 16.9791 18.0248 16.6763 17.7228L0.227115 1.31984Z" fill="#AAAAAA"/>
<path d="M16.6567 0.226139C16.9586 -0.0766817 17.4482 -0.0766817 17.7502 0.226139C18.0521 0.52896 18.0521 1.01993 17.7502 1.32275L1.34741 17.7719C1.04545 18.0747 0.555861 18.0747 0.253894 17.7719C-0.0480725 17.4691 -0.0480725 16.9781 0.253894 16.6753L16.6567 0.226139Z" fill="#AAAAAA"/>
</svg>
