<svg width="76" height="43" viewBox="0 0 76 43" fill="none" xmlns="http://www.w3.org/2000/svg">
<path d="M56.4741 34.3284C51.3897 30.156 45.9154 27.4004 44.7925 26.8555C44.6677 26.7933 44.5898 26.6687 44.5898 26.5286V18.6354C45.5879 17.966 46.243 16.845 46.243 15.5684V7.37943C46.243 3.30051 42.9365 0 38.8503 0H37.9769H37.0879C33.0017 0 29.6953 3.30051 29.6953 7.37943V15.5684C29.6953 16.845 30.3503 17.9815 31.3485 18.6354V26.5286C31.3485 26.6687 31.2705 26.7933 31.1457 26.8555C30.0228 27.4004 24.5485 30.1716 19.4641 34.3284C18.5439 35.0757 18.0137 36.2122 18.0137 37.3954V43H37.9769H57.9246V37.3954C57.9246 36.2122 57.3943 35.0757 56.4741 34.3284Z" fill="#2B2A29"/>
<path d="M74.7369 28.8016C70.4791 25.2987 65.8782 22.979 64.9424 22.5275C64.8333 22.4808 64.7709 22.3718 64.7709 22.2473V15.6307C65.5975 15.0702 66.1589 14.1361 66.1589 13.0463V6.18067C66.1589 2.77118 63.3828 0 59.9672 0H59.2342H58.5012C55.0856 0 52.3094 2.77118 52.3094 6.18067V13.0463C52.3094 14.1206 52.8553 15.0702 53.6975 15.6307V22.2473C53.6975 22.3718 53.6351 22.4652 53.5259 22.5275C52.9489 22.8077 50.9526 23.8041 48.5195 25.361C50.9526 26.6999 54.8048 29.004 58.4388 31.9931C59.7177 33.0362 60.5599 34.4841 60.8718 36.072H76.0002V31.3704C75.9534 30.374 75.5167 29.4243 74.7369 28.8016Z" fill="#2B2A29"/>
<path d="M22.4587 22.5275C22.3495 22.4808 22.2871 22.3718 22.2871 22.2473V15.6307C23.1137 15.0702 23.6752 14.1361 23.6752 13.0463V6.18067C23.6752 2.77118 20.899 0 17.4834 0H16.7504H15.9862C12.5706 0 9.79447 2.77118 9.79447 6.18067V13.0463C9.79447 14.1206 10.3403 15.0702 11.1825 15.6307V22.2473C11.1825 22.3718 11.1202 22.4652 11.011 22.5275C10.0752 22.979 5.4743 25.2987 1.21651 28.8016C0.452292 29.4399 0 30.374 0 31.3704V36.072H15.1284C15.4247 34.4841 16.2825 33.0362 17.5614 31.9931C21.1954 29.004 25.0476 26.6999 27.4807 25.361C25.032 23.8041 23.0357 22.8077 22.4587 22.5275Z" fill="#2B2A29"/>
</svg>
