<svg width="13" height="13" viewBox="0 0 13 13" fill="none" xmlns="http://www.w3.org/2000/svg">
<path d="M9.88357 8.59971C9.45885 8.18041 8.92862 8.18041 8.5066 8.59971C8.18468 8.91892 7.86275 9.23813 7.54624 9.56275C7.45967 9.65203 7.38663 9.67096 7.28113 9.61145C7.07282 9.49783 6.85099 9.40585 6.6508 9.28142C5.71749 8.69439 4.93568 7.93965 4.24313 7.09022C3.89957 6.66821 3.59387 6.21645 3.38016 5.70787C3.33688 5.60508 3.34499 5.53745 3.42885 5.45359C3.75078 5.14249 4.06459 4.82328 4.3811 4.50407C4.82206 4.06042 4.82206 3.54103 4.3784 3.09467C4.12681 2.84038 3.87522 2.59151 3.62363 2.33722C3.36393 2.07752 3.10693 1.81512 2.84452 1.55813C2.4198 1.14424 1.88957 1.14424 1.46755 1.56083C1.14292 1.88005 0.831816 2.20737 0.501776 2.52117C0.196083 2.81063 0.0418843 3.16501 0.00942136 3.5789C-0.0419783 4.25249 0.123042 4.8882 0.355693 5.50769C0.831816 6.78995 1.55682 7.92883 2.43603 8.97303C3.62363 10.3851 5.04118 11.5024 6.6995 12.3085C7.44615 12.671 8.21985 12.9496 9.06118 12.9956C9.6401 13.0281 10.1433 12.882 10.5464 12.4302C10.8223 12.1219 11.1334 11.8405 11.4256 11.5457C11.8584 11.1074 11.8611 10.5772 11.431 10.1444C10.917 9.62768 10.4003 9.11369 9.88357 8.59971Z" fill="#E0E0E0"/>
<path d="M9.36681 6.44344L10.365 6.27302C10.2081 5.35596 9.77531 4.52547 9.11793 3.86541C8.42268 3.17018 7.54348 2.73194 6.575 2.59668L6.43433 3.6003C7.18368 3.7058 7.8654 4.04395 8.40375 4.58228C8.91233 5.09085 9.24508 5.73469 9.36681 6.44344Z" fill="#E0E0E0"/>
<path d="M10.9278 2.10463C9.77532 0.952223 8.31719 0.22453 6.70757 0L6.56689 1.00362C7.95739 1.19839 9.21804 1.8287 10.2136 2.8215C11.1577 3.76561 11.7772 4.95859 12.0017 6.27061L13 6.10018C12.7376 4.57987 12.0207 3.20023 10.9278 2.10463Z" fill="#E0E0E0"/>
</svg>
