<svg width="119" height="12" viewBox="0 0 119 12" fill="none" xmlns="http://www.w3.org/2000/svg">
<path fill-rule="evenodd" clip-rule="evenodd" d="M115.963 11.5944L115.323 9.84674H111.54L110.837 11.5944H107.976L111.978 1.18754H114.932L118.855 11.5944H115.963ZM113.431 4.41746L112.29 7.78754H114.603L113.431 4.41746ZM101.429 5.60306L98.9121 11.5944H97.8339L95.4269 5.60306L94.5361 11.5944H91.8473L93.6135 1.18754H96.2864L98.3966 6.7421L100.632 1.18754H103.336L104.899 11.5944H102.195L101.429 5.60306ZM85.4088 8.1461H83.7052V11.5944H81.001V1.18754H85.3148C86.2215 1.18754 87.1596 1.35938 87.9564 2.12402C88.7692 2.90402 88.9253 3.77762 88.9253 4.65122C88.9253 5.47826 88.8159 6.44546 88.0036 7.2413C87.1904 8.03714 86.2215 8.1461 85.4088 8.1461ZM85.7841 3.74642C85.4714 3.41858 84.9713 3.37202 84.6273 3.37202H83.7052V5.9621H84.6114C84.8933 5.9621 85.4242 5.9309 85.7528 5.63426C86.0809 5.35346 86.0967 4.93202 86.0967 4.68242C86.0967 4.40162 86.0654 4.02722 85.7841 3.74642ZM71.1866 11.8282C69.6391 11.8282 68.1388 11.2978 67.076 10.2835C65.966 9.22274 65.4351 7.7717 65.4351 6.3989C65.4351 5.01026 65.966 3.54338 67.076 2.49842C68.1388 1.48418 69.6391 0.953784 71.1866 0.953784C72.7341 0.953784 74.2348 1.48418 75.2976 2.49842C76.4072 3.54338 76.9386 5.01026 76.9386 6.3989C76.9386 7.7717 76.4072 9.22274 75.2976 10.2835C74.2348 11.2978 72.7341 11.8282 71.1866 11.8282ZM73.2814 4.40162C72.7028 3.85586 71.9059 3.57458 71.1866 3.57458C70.4364 3.57458 69.6391 3.84002 69.0769 4.40162C68.5141 4.94786 68.2482 5.7125 68.2482 6.44546C68.2482 7.3661 68.6857 8.00594 69.0769 8.38034C69.577 8.8637 70.2803 9.20738 71.1866 9.20738C72.1087 9.20738 72.7967 8.87954 73.2814 8.3957C73.7656 7.91234 74.125 7.19474 74.125 6.3989C74.125 5.5877 73.7656 4.86962 73.2814 4.40162ZM57.0275 10.1434V11.5944H54.3078V10.1434C52.3383 10.1434 51.2909 9.62834 50.6034 8.9573C49.6813 8.03714 49.4934 6.97586 49.4934 6.0245C49.4934 5.15042 49.65 3.91826 50.6189 2.99762C51.4788 2.17058 52.8697 1.81154 54.3078 1.81154V0.298584H57.0275V1.81154C58.4651 1.81154 59.8565 2.17058 60.716 2.99762C61.6849 3.91826 61.8415 5.15042 61.8415 6.0245C61.8415 6.97586 61.6536 8.03714 60.7314 8.9573C60.0439 9.62834 58.9965 10.1434 57.0275 10.1434ZM54.5107 3.90242H54.3859C53.9325 3.90242 53.3072 3.94946 52.823 4.38626C52.5103 4.66706 52.2131 5.18162 52.2131 5.94626C52.2131 6.5237 52.4164 7.16306 52.823 7.5533C53.2759 7.9901 53.8386 8.0525 54.37 8.0525H54.5107V3.90242ZM58.5124 4.38626C58.0277 3.94946 57.4023 3.90242 56.949 3.90242H56.8242V8.0525H56.9649C57.4963 8.0525 58.059 7.9901 58.5124 7.5533C58.9185 7.16306 59.1218 6.5237 59.1218 5.94626C59.1218 5.18162 58.825 4.66706 58.5124 4.38626ZM44.1957 11.5944H41.492V3.48098H39.2724V1.18754H46.4153V3.48098H44.1957V11.5944ZM33.6467 9.84674H29.8642L29.1608 11.5944H26.3005L30.3021 1.18754H33.2559L37.1791 11.5944H34.2874L33.6467 9.84674ZM31.7557 4.41746L30.6143 7.78754H32.9278L31.7557 4.41746ZM18.3776 5.2661L15.8766 11.6002H12.9228L17.2988 1.19378H19.409L23.8482 11.6002H20.9098L18.3776 5.2661ZM6.76566 3.49682H3.02993V11.5944H0.326172V1.18754H9.48532V11.5944H6.76566V3.49682Z" fill="white"/>
</svg>
