<svg width="56" height="56" viewBox="0 0 56 56" fill="none" xmlns="http://www.w3.org/2000/svg">
<path d="M28 0C12.5349 0 0 12.5349 0 28C0 43.465 12.5349 56 28 56C43.465 56 56 43.465 56 28C56 12.5349 43.465 0 28 0ZM41.3981 30.248L24.6963 41.7379C24.2317 42.0562 23.6909 42.2189 23.1486 42.2189C22.7122 42.2189 22.2789 42.1152 21.8798 41.9067C20.983 41.4323 20.4198 40.5024 20.4198 39.4902V16.5101C20.4198 15.4979 20.983 14.5678 21.8798 14.0934C22.7766 13.623 23.8602 13.6878 24.6963 14.2622L41.3981 25.752C42.1371 26.2608 42.58 27.1026 42.58 28C42.58 28.8974 42.1373 29.7392 41.3981 30.248Z" fill="#2B2A29"/>
</svg>
