<svg width="16" height="16" viewBox="0 0 16 16" fill="none" xmlns="http://www.w3.org/2000/svg">
<path fill-rule="evenodd" clip-rule="evenodd" d="M2 6.24093C2 3.89279 3.88994 2 6.20806 2C8.52619 2 10.4161 3.89279 10.4161 6.24093C10.4161 8.58908 8.52619 10.4819 6.20806 10.4819C3.88994 10.4819 2 8.58908 2 6.24093ZM6.20806 0C2.77352 0 0 2.8001 0 6.24093C0 9.68176 2.77352 12.4819 6.20806 12.4819C7.60462 12.4819 8.89189 12.0189 9.92783 11.2381L14.3825 15.7209C14.7523 16.093 15.3518 16.093 15.7216 15.7209C16.0914 15.3488 16.0914 14.7454 15.7216 14.3733L11.2538 9.87731C11.9856 8.85266 12.4161 7.59652 12.4161 6.24093C12.4161 2.8001 9.6426 0 6.20806 0Z" fill="#DCDCDC"/>
</svg>
