<svg width="23" height="18" viewBox="0 0 23 18" fill="none" xmlns="http://www.w3.org/2000/svg">
<mask id="path-1-inside-1" fill="white">
<path fill-rule="evenodd" clip-rule="evenodd" d="M14.1221 18L13.3374 17.2045L20.6344 9.80635L-0.000476837 9.80635V8.21536L20.6558 8.21536L13.3374 0.795549L14.1221 0L22.999 9L14.1221 18Z"/>
</mask>
<path fill-rule="evenodd" clip-rule="evenodd" d="M14.1221 18L13.3374 17.2045L20.6344 9.80635L-0.000476837 9.80635V8.21536L20.6558 8.21536L13.3374 0.795549L14.1221 0L22.999 9L14.1221 18Z" fill="white"/>
<path d="M13.3374 17.2045L12.6255 16.5022L11.9329 17.2045L12.6255 17.9067L13.3374 17.2045ZM14.1221 18L13.4102 18.7022L14.1221 19.4241L14.8341 18.7022L14.1221 18ZM20.6344 9.80635L21.3463 10.5086L23.0253 8.80635H20.6344V9.80635ZM-0.000476837 9.80635H-1.00048V10.8063H-0.000476837V9.80635ZM-0.000476837 8.21536V7.21536H-1.00048V8.21536H-0.000476837ZM20.6558 8.21536V9.21536H23.0467L21.3677 7.51314L20.6558 8.21536ZM13.3374 0.795549L12.6255 0.0933285L11.9329 0.795549L12.6255 1.49777L13.3374 0.795549ZM14.1221 0L14.8341 -0.702221L14.1221 -1.42405L13.4102 -0.702221L14.1221 0ZM22.999 9L23.711 9.70222L24.4036 9L23.711 8.29778L22.999 9ZM12.6255 17.9067L13.4102 18.7022L14.8341 17.2978L14.0494 16.5022L12.6255 17.9067ZM19.9224 9.10413L12.6255 16.5022L14.0494 17.9067L21.3463 10.5086L19.9224 9.10413ZM20.6344 8.80635L-0.000476837 8.80635V10.8063L20.6344 10.8063V8.80635ZM0.999523 9.80635V8.21536H-1.00048V9.80635H0.999523ZM-0.000476837 9.21536L20.6558 9.21536V7.21536L-0.000476837 7.21536V9.21536ZM12.6255 1.49777L19.9438 8.91758L21.3677 7.51314L14.0494 0.0933285L12.6255 1.49777ZM13.4102 -0.702221L12.6255 0.0933285L14.0494 1.49777L14.8341 0.702221L13.4102 -0.702221ZM23.711 8.29778L14.8341 -0.702221L13.4102 0.702221L22.2871 9.70222L23.711 8.29778ZM14.8341 18.7022L23.711 9.70222L22.2871 8.29778L13.4102 17.2978L14.8341 18.7022Z" fill="#BDBDBD" mask="url(#path-1-inside-1)"/>
</svg>
