<svg width="23" height="18" viewBox="0 0 23 18" fill="none" xmlns="http://www.w3.org/2000/svg">
<mask id="path-1-inside-1" fill="white">
<path fill-rule="evenodd" clip-rule="evenodd" d="M8.87788 0L9.66255 0.795549L2.36563 8.19365L23.0005 8.19365V9.78464L2.34422 9.78464L9.66255 17.2045L8.87788 18L0.000976563 9L8.87788 0Z"/>
</mask>
<path fill-rule="evenodd" clip-rule="evenodd" d="M8.87788 0L9.66255 0.795549L2.36563 8.19365L23.0005 8.19365V9.78464L2.34422 9.78464L9.66255 17.2045L8.87788 18L0.000976563 9L8.87788 0Z" fill="white"/>
<path d="M9.66255 0.795549L10.3745 1.49777L11.0671 0.795549L10.3745 0.0933273L9.66255 0.795549ZM8.87788 0L9.58984 -0.702221L8.87788 -1.42405L8.16593 -0.702221L8.87788 0ZM2.36563 8.19365L1.65367 7.49143L-0.0252658 9.19365H2.36563V8.19365ZM23.0005 8.19365H24.0005V7.19365H23.0005V8.19365ZM23.0005 9.78464V10.7846H24.0005V9.78464H23.0005ZM2.34422 9.78464V8.78464H-0.0466767L1.63226 10.4869L2.34422 9.78464ZM9.66255 17.2045L10.3745 17.9067L11.0671 17.2045L10.3745 16.5022L9.66255 17.2045ZM8.87788 18L8.16593 18.7022L8.87788 19.4241L9.58984 18.7022L8.87788 18ZM0.000976563 9L-0.710982 8.29778L-1.4036 9L-0.710982 9.70222L0.000976563 9ZM10.3745 0.0933273L9.58984 -0.702221L8.16593 0.702221L8.95059 1.49777L10.3745 0.0933273ZM3.07759 8.89587L10.3745 1.49777L8.95059 0.0933273L1.65367 7.49143L3.07759 8.89587ZM2.36563 9.19365L23.0005 9.19365V7.19365L2.36563 7.19365V9.19365ZM22.0005 8.19365V9.78464H24.0005V8.19365H22.0005ZM23.0005 8.78464L2.34422 8.78464V10.7846L23.0005 10.7846V8.78464ZM10.3745 16.5022L3.05618 9.08242L1.63226 10.4869L8.95059 17.9067L10.3745 16.5022ZM9.58984 18.7022L10.3745 17.9067L8.95059 16.5022L8.16593 17.2978L9.58984 18.7022ZM-0.710982 9.70222L8.16593 18.7022L9.58984 17.2978L0.712935 8.29778L-0.710982 9.70222ZM8.16593 -0.702221L-0.710982 8.29778L0.712935 9.70222L9.58984 0.702221L8.16593 -0.702221Z" fill="#BDBDBD" mask="url(#path-1-inside-1)"/>
</svg>
