<svg width="60" height="60" viewBox="0 0 60 60" fill="none" xmlns="http://www.w3.org/2000/svg">
<path d="M28.1905 18.7654C29.3145 17.5187 30 15.8693 30 14.0625C30 10.1855 26.8458 7.03125 22.9688 7.03125C21.0934 7.03125 19.3137 7.75605 17.9572 9.07207C16.5792 10.4089 15.8203 12.1813 15.8203 14.0625C15.8203 15.8222 16.4845 17.4864 17.6981 18.7883C13.6383 20.7555 10.5469 25.0356 10.5469 30.1172V33.6328C10.5469 34.6036 11.3339 35.3906 12.3047 35.3906H33.6328C34.6036 35.3906 35.3906 34.6036 35.3906 33.6328V30.1172C35.3906 25.0638 32.3189 20.7431 28.1905 18.7654ZM22.9688 10.5469C24.9073 10.5469 26.4844 12.124 26.4844 14.0625C26.4844 16.001 24.9073 17.5781 22.9688 17.5781C20.9995 17.5781 19.3359 15.9682 19.3359 14.0625C19.3359 12.1568 20.9995 10.5469 22.9688 10.5469ZM31.875 31.875H14.0625V30.1172C14.0625 25.226 18.1411 21.0938 22.9688 21.0938C27.7964 21.0938 31.875 25.226 31.875 30.1172V31.875Z" fill="#2B2A29"/>
<path d="M45.9375 31.875V1.75781C45.9375 0.787031 45.1505 0 44.1797 0H13.7609C12.3523 0 11.028 0.548555 10.0321 1.54453L1.54453 10.0321C0.548555 11.028 0 12.3523 0 13.7609V54.7266C0 55.6973 0.787031 56.4844 1.75781 56.4844H36.647C39.1264 58.6711 42.3795 60 45.9375 60C53.6916 60 60 53.6916 60 45.9375C60 38.1834 53.6916 31.875 45.9375 31.875ZM10.5469 6.00152V10.5469H6.00152L10.5469 6.00152ZM3.51562 52.9688V14.0625H12.3047C13.2755 14.0625 14.0625 13.2755 14.0625 12.3047V3.51562H42.4219V32.32C38.732 33.2732 35.6248 35.6906 33.759 38.9126C33.7172 38.9096 33.6755 38.9062 33.6328 38.9062H12.3047C11.3339 38.9062 10.5469 39.6933 10.5469 40.6641C10.5469 41.6348 11.3339 42.4102 12.3047 42.4102H32.32C32.0296 43.5342 31.875 44.724 31.875 45.9375H12.3047C11.3339 45.9375 10.5469 46.7245 10.5469 47.6953C10.5469 48.6661 11.3339 49.4531 12.3047 49.4531H32.32C32.6421 50.7001 33.1317 51.8803 33.7628 52.9688H3.51562ZM45.9375 56.4844C40.122 56.4844 35.3906 51.753 35.3906 45.9375C35.3906 40.122 40.122 35.3906 45.9375 35.3906C51.753 35.3906 56.4844 40.122 56.4844 45.9375C56.4844 51.753 51.753 56.4844 45.9375 56.4844Z" fill="#2B2A29"/>
<path d="M52.4539 41.1788C51.7675 40.4924 50.6545 40.4924 49.9681 41.179L44.1797 46.9672L41.907 44.6946C41.2206 44.0081 40.1076 44.0081 39.4211 44.6946C38.7346 45.3811 38.7346 46.494 39.4211 47.1805L42.9367 50.6961C43.28 51.0394 43.7299 51.2109 44.1797 51.2109C44.6296 51.2109 45.0795 51.0394 45.4226 50.696L52.4539 43.6647C53.1404 42.9783 53.1404 41.8653 52.4539 41.1788Z" fill="#2B2A29"/>
</svg>
